<mxfile host="www.draw.io" modified="2019-11-03T09:15:30.018Z" agent="Mozilla/5.0 (Macintosh; Intel Mac OS X 10_14_4) AppleWebKit/537.36 (KHTML, like Gecko) Chrome/74.0.3729.169 Safari/537.36" etag="-oU0TnVoIcdgB44voT6f" version="12.1.9" type="github" pages="1">
  <diagram id="Qa4ZF32ClRhi0GuGa61Q" name="第 1 页">
    <mxGraphModel dx="908" dy="719" grid="1" gridSize="10" guides="1" tooltips="1" connect="1" arrows="1" fold="1" page="1" pageScale="1" pageWidth="827" pageHeight="1169" math="0" shadow="0">
      <root>
        <mxCell id="0"/>
        <mxCell id="1" parent="0"/>
        <mxCell id="hcL6590jOiXDvP15ms0I-1" value="开始" style="shape=mxgraph.flowchart.terminator;fillColor=#FFFFFF;strokeColor=#000000;strokeWidth=2;gradientColor=none;gradientDirection=north;fontColor=#001933;fontStyle=0;html=1;" vertex="1" parent="1">
          <mxGeometry x="652.5" y="180" width="120" height="30" as="geometry"/>
        </mxCell>
        <mxCell id="hcL6590jOiXDvP15ms0I-2" style="fontColor=#001933;fontStyle=1;strokeColor=#003366;strokeWidth=1;html=1;" edge="1" parent="1" source="hcL6590jOiXDvP15ms0I-1">
          <mxGeometry relative="1" as="geometry">
            <mxPoint x="712.5000000000002" y="250" as="targetPoint"/>
          </mxGeometry>
        </mxCell>
        <mxCell id="hcL6590jOiXDvP15ms0I-7" value="蚂蚁金服保险数据&lt;br&gt;科技实验室" style="shape=cylinder;whiteSpace=wrap;html=1;boundedLbl=1;backgroundOutline=1;fillColor=#3399FF;strokeColor=#001DBC;fontColor=#ffffff;gradientColor=none;" vertex="1" parent="1">
          <mxGeometry x="577" y="386" width="270" height="80" as="geometry"/>
        </mxCell>
        <mxCell id="hcL6590jOiXDvP15ms0I-8" value="共创" style="ellipse;whiteSpace=wrap;html=1;fillColor=#ffffff;" vertex="1" parent="1">
          <mxGeometry x="577" y="386" width="270" height="30" as="geometry"/>
        </mxCell>
        <mxCell id="hcL6590jOiXDvP15ms0I-9" value="" style="edgeStyle=orthogonalEdgeStyle;rounded=0;orthogonalLoop=1;jettySize=auto;html=1;" edge="1" parent="1" source="hcL6590jOiXDvP15ms0I-10" target="hcL6590jOiXDvP15ms0I-7">
          <mxGeometry relative="1" as="geometry"/>
        </mxCell>
        <mxCell id="hcL6590jOiXDvP15ms0I-10" value="数据脱敏" style="ellipse;whiteSpace=wrap;html=1;fillColor=#dae8fc;strokeColor=#6c8ebf;" vertex="1" parent="1">
          <mxGeometry x="577" y="336" width="270" height="31" as="geometry"/>
        </mxCell>
        <mxCell id="hcL6590jOiXDvP15ms0I-11" style="edgeStyle=orthogonalEdgeStyle;rounded=0;orthogonalLoop=1;jettySize=auto;html=1;entryX=0.241;entryY=-0.016;entryDx=0;entryDy=0;entryPerimeter=0;" edge="1" parent="1" source="hcL6590jOiXDvP15ms0I-12" target="hcL6590jOiXDvP15ms0I-10">
          <mxGeometry relative="1" as="geometry"/>
        </mxCell>
        <mxCell id="hcL6590jOiXDvP15ms0I-12" value="" style="html=1;verticalLabelPosition=bottom;align=center;labelBackgroundColor=#ffffff;verticalAlign=top;strokeWidth=2;strokeColor=#0080F0;fillColor=#ffffff;shadow=0;dashed=0;shape=mxgraph.ios7.icons.cloud;" vertex="1" parent="1">
          <mxGeometry x="587" y="256" width="110" height="60" as="geometry"/>
        </mxCell>
        <mxCell id="hcL6590jOiXDvP15ms0I-13" value="&lt;font style=&quot;font-size: 10px&quot;&gt;蚂蚁积累的&lt;br style=&quot;font-size: 10px&quot;&gt;用户画像数据&lt;/font&gt;" style="text;html=1;resizable=0;points=[];autosize=1;align=left;verticalAlign=top;spacingTop=-4;" vertex="1" parent="1">
          <mxGeometry x="607" y="281" width="90" height="30" as="geometry"/>
        </mxCell>
        <mxCell id="hcL6590jOiXDvP15ms0I-14" style="edgeStyle=orthogonalEdgeStyle;rounded=0;orthogonalLoop=1;jettySize=auto;html=1;entryX=0.796;entryY=0;entryDx=0;entryDy=0;entryPerimeter=0;" edge="1" parent="1" source="hcL6590jOiXDvP15ms0I-15" target="hcL6590jOiXDvP15ms0I-10">
          <mxGeometry relative="1" as="geometry"/>
        </mxCell>
        <mxCell id="hcL6590jOiXDvP15ms0I-15" value="" style="html=1;verticalLabelPosition=bottom;align=center;labelBackgroundColor=#ffffff;verticalAlign=top;strokeWidth=2;strokeColor=#0080F0;fillColor=#ffffff;shadow=0;dashed=0;shape=mxgraph.ios7.icons.cloud;" vertex="1" parent="1">
          <mxGeometry x="737" y="256" width="110" height="60" as="geometry"/>
        </mxCell>
        <mxCell id="hcL6590jOiXDvP15ms0I-16" value="&lt;span style=&quot;font-size: 10px&quot;&gt;保险公司积累&lt;br&gt;&lt;/span&gt;的车险理赔数据" style="text;html=1;resizable=0;points=[];autosize=1;align=left;verticalAlign=top;spacingTop=-4;" vertex="1" parent="1">
          <mxGeometry x="747" y="281" width="100" height="30" as="geometry"/>
        </mxCell>
        <mxCell id="hcL6590jOiXDvP15ms0I-17" value="" style="edgeStyle=orthogonalEdgeStyle;rounded=0;orthogonalLoop=1;jettySize=auto;html=1;strokeWidth=2;" edge="1" parent="1" source="hcL6590jOiXDvP15ms0I-18" target="hcL6590jOiXDvP15ms0I-25">
          <mxGeometry relative="1" as="geometry"/>
        </mxCell>
        <mxCell id="hcL6590jOiXDvP15ms0I-18" value="" style="rounded=1;whiteSpace=wrap;html=1;fillColor=none;gradientColor=none;dashed=1;" vertex="1" parent="1">
          <mxGeometry x="522.5" y="251" width="390" height="235" as="geometry"/>
        </mxCell>
        <mxCell id="hcL6590jOiXDvP15ms0I-19" value="一般风险人群" style="shape=process;whiteSpace=wrap;html=1;backgroundOutline=1;fillColor=none;gradientColor=none;" vertex="1" parent="1">
          <mxGeometry x="657.5" y="646" width="120" height="60" as="geometry"/>
        </mxCell>
        <mxCell id="hcL6590jOiXDvP15ms0I-20" value="低风险人群" style="shape=process;whiteSpace=wrap;html=1;backgroundOutline=1;fillColor=none;gradientColor=none;" vertex="1" parent="1">
          <mxGeometry x="487.5" y="646" width="120" height="60" as="geometry"/>
        </mxCell>
        <mxCell id="hcL6590jOiXDvP15ms0I-21" value="高风险人群" style="shape=process;whiteSpace=wrap;html=1;backgroundOutline=1;fillColor=none;gradientColor=none;" vertex="1" parent="1">
          <mxGeometry x="823" y="646" width="120" height="60" as="geometry"/>
        </mxCell>
        <mxCell id="hcL6590jOiXDvP15ms0I-22" value="" style="edgeStyle=orthogonalEdgeStyle;rounded=0;orthogonalLoop=1;jettySize=auto;html=1;strokeWidth=2;" edge="1" parent="1" source="hcL6590jOiXDvP15ms0I-25" target="hcL6590jOiXDvP15ms0I-19">
          <mxGeometry relative="1" as="geometry"/>
        </mxCell>
        <mxCell id="hcL6590jOiXDvP15ms0I-23" style="edgeStyle=orthogonalEdgeStyle;rounded=0;orthogonalLoop=1;jettySize=auto;html=1;strokeWidth=2;" edge="1" parent="1" source="hcL6590jOiXDvP15ms0I-25" target="hcL6590jOiXDvP15ms0I-21">
          <mxGeometry relative="1" as="geometry"/>
        </mxCell>
        <mxCell id="hcL6590jOiXDvP15ms0I-24" style="edgeStyle=orthogonalEdgeStyle;rounded=0;orthogonalLoop=1;jettySize=auto;html=1;entryX=0.5;entryY=0;entryDx=0;entryDy=0;strokeWidth=2;" edge="1" parent="1" source="hcL6590jOiXDvP15ms0I-25" target="hcL6590jOiXDvP15ms0I-20">
          <mxGeometry relative="1" as="geometry"/>
        </mxCell>
        <mxCell id="hcL6590jOiXDvP15ms0I-25" value="&lt;span style=&quot;white-space: normal&quot;&gt;蚂蚁车险分（AI）&lt;/span&gt;" style="shape=parallelogram;html=1;strokeWidth=2;perimeter=parallelogramPerimeter;whiteSpace=wrap;rounded=1;arcSize=12;size=0.23;fillColor=none;gradientColor=none;" vertex="1" parent="1">
          <mxGeometry x="667.5" y="531" width="100" height="60" as="geometry"/>
        </mxCell>
        <mxCell id="hcL6590jOiXDvP15ms0I-48" value="第一步：上传车辆全景和受损部位照片" style="rounded=1;whiteSpace=wrap;html=1;absoluteArcSize=1;arcSize=14;strokeWidth=2;" vertex="1" parent="1">
          <mxGeometry x="411" y="963" width="119" height="60" as="geometry"/>
        </mxCell>
        <mxCell id="hcL6590jOiXDvP15ms0I-49" value="第二步：查询第二年保费" style="rounded=1;whiteSpace=wrap;html=1;absoluteArcSize=1;arcSize=14;strokeWidth=2;" vertex="1" parent="1">
          <mxGeometry x="411" y="1052" width="119" height="51" as="geometry"/>
        </mxCell>
        <mxCell id="hcL6590jOiXDvP15ms0I-50" value="第三步：查询维修地点" style="rounded=1;whiteSpace=wrap;html=1;absoluteArcSize=1;arcSize=14;strokeWidth=2;" vertex="1" parent="1">
          <mxGeometry x="411" y="1123" width="118" height="51" as="geometry"/>
        </mxCell>
        <mxCell id="hcL6590jOiXDvP15ms0I-51" value="计算维修价格/保险索赔金额" style="rounded=1;whiteSpace=wrap;html=1;absoluteArcSize=1;arcSize=14;strokeWidth=2;" vertex="1" parent="1">
          <mxGeometry x="604" y="962.5" width="101" height="60" as="geometry"/>
        </mxCell>
        <mxCell id="hcL6590jOiXDvP15ms0I-88" style="edgeStyle=orthogonalEdgeStyle;rounded=0;orthogonalLoop=1;jettySize=auto;html=1;entryX=0;entryY=0.5;entryDx=0;entryDy=0;strokeWidth=2;" edge="1" parent="1" source="hcL6590jOiXDvP15ms0I-52" target="hcL6590jOiXDvP15ms0I-64">
          <mxGeometry relative="1" as="geometry"/>
        </mxCell>
        <mxCell id="hcL6590jOiXDvP15ms0I-52" value="预测下一年保费" style="rounded=1;whiteSpace=wrap;html=1;absoluteArcSize=1;arcSize=14;strokeWidth=2;" vertex="1" parent="1">
          <mxGeometry x="609.5" y="1051.5" width="100" height="51" as="geometry"/>
        </mxCell>
        <mxCell id="hcL6590jOiXDvP15ms0I-89" style="edgeStyle=orthogonalEdgeStyle;rounded=0;orthogonalLoop=1;jettySize=auto;html=1;strokeWidth=2;" edge="1" parent="1" source="hcL6590jOiXDvP15ms0I-53" target="hcL6590jOiXDvP15ms0I-65">
          <mxGeometry relative="1" as="geometry"/>
        </mxCell>
        <mxCell id="hcL6590jOiXDvP15ms0I-53" value="提供维修地点选项" style="rounded=1;whiteSpace=wrap;html=1;absoluteArcSize=1;arcSize=14;strokeWidth=2;" vertex="1" parent="1">
          <mxGeometry x="608.5" y="1122.5" width="100" height="51" as="geometry"/>
        </mxCell>
        <mxCell id="hcL6590jOiXDvP15ms0I-82" value="" style="edgeStyle=orthogonalEdgeStyle;rounded=0;orthogonalLoop=1;jettySize=auto;html=1;strokeWidth=2;" edge="1" parent="1" source="hcL6590jOiXDvP15ms0I-54" target="hcL6590jOiXDvP15ms0I-60">
          <mxGeometry relative="1" as="geometry"/>
        </mxCell>
        <mxCell id="hcL6590jOiXDvP15ms0I-54" value="识别车型/出险部位" style="shape=tape;whiteSpace=wrap;html=1;strokeWidth=2;size=0.19" vertex="1" parent="1">
          <mxGeometry x="781" y="898" width="156" height="40" as="geometry"/>
        </mxCell>
        <mxCell id="hcL6590jOiXDvP15ms0I-60" value="数据获取、图像处理、特征提取" style="rounded=1;whiteSpace=wrap;html=1;absoluteArcSize=1;arcSize=14;strokeWidth=2;" vertex="1" parent="1">
          <mxGeometry x="977" y="899" width="174" height="37" as="geometry"/>
        </mxCell>
        <mxCell id="hcL6590jOiXDvP15ms0I-61" value="识别分类" style="rounded=1;whiteSpace=wrap;html=1;absoluteArcSize=1;arcSize=14;strokeWidth=2;" vertex="1" parent="1">
          <mxGeometry x="977" y="941.5" width="174" height="33" as="geometry"/>
        </mxCell>
        <mxCell id="hcL6590jOiXDvP15ms0I-62" value="对应维修规则" style="rounded=1;whiteSpace=wrap;html=1;absoluteArcSize=1;arcSize=14;strokeWidth=2;" vertex="1" parent="1">
          <mxGeometry x="977" y="979" width="174" height="37" as="geometry"/>
        </mxCell>
        <mxCell id="hcL6590jOiXDvP15ms0I-63" value="依据VIN码对接保险公司" style="rounded=1;whiteSpace=wrap;html=1;absoluteArcSize=1;arcSize=14;strokeWidth=2;" vertex="1" parent="1">
          <mxGeometry x="977" y="1021.5" width="174" height="33" as="geometry"/>
        </mxCell>
        <mxCell id="hcL6590jOiXDvP15ms0I-64" value="建模预测" style="rounded=1;whiteSpace=wrap;html=1;absoluteArcSize=1;arcSize=14;strokeWidth=2;" vertex="1" parent="1">
          <mxGeometry x="977" y="1058" width="174" height="37" as="geometry"/>
        </mxCell>
        <mxCell id="hcL6590jOiXDvP15ms0I-65" value="GPS系统对接4S店" style="rounded=1;whiteSpace=wrap;html=1;absoluteArcSize=1;arcSize=14;strokeWidth=2;" vertex="1" parent="1">
          <mxGeometry x="977" y="1131.5" width="174" height="33" as="geometry"/>
        </mxCell>
        <mxCell id="hcL6590jOiXDvP15ms0I-83" value="" style="edgeStyle=orthogonalEdgeStyle;rounded=0;orthogonalLoop=1;jettySize=auto;html=1;strokeWidth=2;" edge="1" parent="1" source="hcL6590jOiXDvP15ms0I-66" target="hcL6590jOiXDvP15ms0I-61">
          <mxGeometry relative="1" as="geometry"/>
        </mxCell>
        <mxCell id="hcL6590jOiXDvP15ms0I-66" value="判别损失程度" style="shape=tape;whiteSpace=wrap;html=1;strokeWidth=2;size=0.19" vertex="1" parent="1">
          <mxGeometry x="781" y="938" width="156" height="40" as="geometry"/>
        </mxCell>
        <mxCell id="hcL6590jOiXDvP15ms0I-85" value="" style="edgeStyle=orthogonalEdgeStyle;rounded=0;orthogonalLoop=1;jettySize=auto;html=1;strokeWidth=2;" edge="1" parent="1" source="hcL6590jOiXDvP15ms0I-67" target="hcL6590jOiXDvP15ms0I-63">
          <mxGeometry relative="1" as="geometry"/>
        </mxCell>
        <mxCell id="hcL6590jOiXDvP15ms0I-67" value="计算维修价格" style="shape=tape;whiteSpace=wrap;html=1;strokeWidth=2;size=0.19" vertex="1" parent="1">
          <mxGeometry x="781" y="1018" width="156" height="40" as="geometry"/>
        </mxCell>
        <mxCell id="hcL6590jOiXDvP15ms0I-84" value="" style="edgeStyle=orthogonalEdgeStyle;rounded=0;orthogonalLoop=1;jettySize=auto;html=1;strokeWidth=2;" edge="1" parent="1" source="hcL6590jOiXDvP15ms0I-68" target="hcL6590jOiXDvP15ms0I-62">
          <mxGeometry relative="1" as="geometry"/>
        </mxCell>
        <mxCell id="hcL6590jOiXDvP15ms0I-68" value="生成维修方案" style="shape=tape;whiteSpace=wrap;html=1;strokeWidth=2;size=0.19" vertex="1" parent="1">
          <mxGeometry x="781" y="978" width="156" height="40" as="geometry"/>
        </mxCell>
        <mxCell id="hcL6590jOiXDvP15ms0I-71" value="" style="verticalLabelPosition=bottom;verticalAlign=top;html=1;strokeWidth=2;shape=mxgraph.arrows2.arrow;dy=0.6;dx=40;notch=0;" vertex="1" parent="1">
          <mxGeometry x="530" y="978" width="71" height="27" as="geometry"/>
        </mxCell>
        <mxCell id="hcL6590jOiXDvP15ms0I-72" value="" style="verticalLabelPosition=bottom;verticalAlign=top;html=1;strokeWidth=2;shape=mxgraph.arrows2.arrow;dy=0.6;dx=40;notch=0;" vertex="1" parent="1">
          <mxGeometry x="530" y="1061" width="71" height="27" as="geometry"/>
        </mxCell>
        <mxCell id="hcL6590jOiXDvP15ms0I-73" value="" style="verticalLabelPosition=bottom;verticalAlign=top;html=1;strokeWidth=2;shape=mxgraph.arrows2.arrow;dy=0.6;dx=40;notch=0;" vertex="1" parent="1">
          <mxGeometry x="530" y="1134.5" width="71" height="27" as="geometry"/>
        </mxCell>
        <mxCell id="hcL6590jOiXDvP15ms0I-74" value="" style="strokeWidth=2;html=1;shape=mxgraph.flowchart.annotation_2;align=left;labelPosition=right;pointerEvents=1;" vertex="1" parent="1">
          <mxGeometry x="711" y="922" width="70" height="113" as="geometry"/>
        </mxCell>
        <mxCell id="hcL6590jOiXDvP15ms0I-76" value="" style="endArrow=none;html=1;exitX=0;exitY=0.35;exitDx=0;exitDy=0;exitPerimeter=0;entryX=0.515;entryY=0.265;entryDx=0;entryDy=0;entryPerimeter=0;strokeWidth=2;" edge="1" parent="1" source="hcL6590jOiXDvP15ms0I-66" target="hcL6590jOiXDvP15ms0I-74">
          <mxGeometry width="50" height="50" relative="1" as="geometry">
            <mxPoint x="791" y="855" as="sourcePoint"/>
            <mxPoint x="757" y="951" as="targetPoint"/>
          </mxGeometry>
        </mxCell>
        <mxCell id="hcL6590jOiXDvP15ms0I-80" value="" style="endArrow=none;html=1;exitX=0;exitY=0.35;exitDx=0;exitDy=0;exitPerimeter=0;entryX=0.51;entryY=0.674;entryDx=0;entryDy=0;entryPerimeter=0;strokeWidth=2;" edge="1" parent="1" target="hcL6590jOiXDvP15ms0I-74">
          <mxGeometry width="50" height="50" relative="1" as="geometry">
            <mxPoint x="780" y="998" as="sourcePoint"/>
            <mxPoint x="755.7500000000002" y="997.9449999999999" as="targetPoint"/>
          </mxGeometry>
        </mxCell>
        <mxCell id="hcL6590jOiXDvP15ms0I-90" value="“定损宝”操作步骤及其技术原理" style="text;html=1;resizable=0;points=[];autosize=1;align=left;verticalAlign=top;spacingTop=-4;" vertex="1" parent="1">
          <mxGeometry x="671" y="1245" width="180" height="20" as="geometry"/>
        </mxCell>
        <mxCell id="hcL6590jOiXDvP15ms0I-91" value="用户操作步骤" style="text;html=1;resizable=0;points=[];autosize=1;align=left;verticalAlign=top;spacingTop=-4;" vertex="1" parent="1">
          <mxGeometry x="430" y="869" width="90" height="20" as="geometry"/>
        </mxCell>
        <mxCell id="hcL6590jOiXDvP15ms0I-92" value="“定损宝”反馈" style="text;html=1;resizable=0;points=[];autosize=1;align=left;verticalAlign=top;spacingTop=-4;" vertex="1" parent="1">
          <mxGeometry x="618.5" y="869" width="80" height="20" as="geometry"/>
        </mxCell>
        <mxCell id="hcL6590jOiXDvP15ms0I-93" value="技术原理" style="text;html=1;resizable=0;points=[];autosize=1;align=left;verticalAlign=top;spacingTop=-4;" vertex="1" parent="1">
          <mxGeometry x="1034" y="869" width="60" height="20" as="geometry"/>
        </mxCell>
        <mxCell id="hcL6590jOiXDvP15ms0I-95" value="" style="rounded=1;whiteSpace=wrap;html=1;fillColor=none;dashed=1;" vertex="1" parent="1">
          <mxGeometry x="390" y="831" width="770" height="370" as="geometry"/>
        </mxCell>
        <mxCell id="hcL6590jOiXDvP15ms0I-124" value="" style="edgeStyle=orthogonalEdgeStyle;rounded=0;orthogonalLoop=1;jettySize=auto;html=1;strokeWidth=2;" edge="1" parent="1" source="hcL6590jOiXDvP15ms0I-125" target="hcL6590jOiXDvP15ms0I-126">
          <mxGeometry relative="1" as="geometry"/>
        </mxCell>
        <mxCell id="hcL6590jOiXDvP15ms0I-125" value="车辆出险" style="rounded=1;whiteSpace=wrap;html=1;fillColor=none;" vertex="1" parent="1">
          <mxGeometry x="547.5" y="1364" width="129" height="31" as="geometry"/>
        </mxCell>
        <mxCell id="hcL6590jOiXDvP15ms0I-126" value="报案" style="rounded=1;whiteSpace=wrap;html=1;fillColor=none;" vertex="1" parent="1">
          <mxGeometry x="547.5" y="1422" width="129" height="31" as="geometry"/>
        </mxCell>
        <mxCell id="hcL6590jOiXDvP15ms0I-127" value="" style="edgeStyle=orthogonalEdgeStyle;rounded=0;orthogonalLoop=1;jettySize=auto;html=1;strokeWidth=2;" edge="1" parent="1" target="hcL6590jOiXDvP15ms0I-129">
          <mxGeometry relative="1" as="geometry">
            <mxPoint x="611.4411764705883" y="1451" as="sourcePoint"/>
          </mxGeometry>
        </mxCell>
        <mxCell id="hcL6590jOiXDvP15ms0I-128" style="edgeStyle=orthogonalEdgeStyle;rounded=0;orthogonalLoop=1;jettySize=auto;html=1;exitX=0.5;exitY=1;exitDx=0;exitDy=0;entryX=0.5;entryY=0;entryDx=0;entryDy=0;strokeWidth=2;" edge="1" parent="1" source="hcL6590jOiXDvP15ms0I-129" target="hcL6590jOiXDvP15ms0I-131">
          <mxGeometry relative="1" as="geometry"/>
        </mxCell>
        <mxCell id="hcL6590jOiXDvP15ms0I-129" value="现场处理" style="rounded=1;whiteSpace=wrap;html=1;fillColor=none;" vertex="1" parent="1">
          <mxGeometry x="547.5" y="1481" width="129" height="31" as="geometry"/>
        </mxCell>
        <mxCell id="hcL6590jOiXDvP15ms0I-130" value="" style="edgeStyle=orthogonalEdgeStyle;rounded=0;orthogonalLoop=1;jettySize=auto;html=1;strokeWidth=2;" edge="1" parent="1" source="hcL6590jOiXDvP15ms0I-131" target="hcL6590jOiXDvP15ms0I-132">
          <mxGeometry relative="1" as="geometry"/>
        </mxCell>
        <mxCell id="hcL6590jOiXDvP15ms0I-131" value="提出索赔请求" style="rounded=1;whiteSpace=wrap;html=1;fillColor=none;" vertex="1" parent="1">
          <mxGeometry x="547.5" y="1530" width="129" height="31" as="geometry"/>
        </mxCell>
        <mxCell id="hcL6590jOiXDvP15ms0I-132" value="配合保险公司事故勘察" style="rounded=1;whiteSpace=wrap;html=1;fillColor=none;" vertex="1" parent="1">
          <mxGeometry x="547.5" y="1591" width="129" height="31" as="geometry"/>
        </mxCell>
        <mxCell id="hcL6590jOiXDvP15ms0I-133" value="" style="edgeStyle=orthogonalEdgeStyle;rounded=0;orthogonalLoop=1;jettySize=auto;html=1;strokeWidth=2;" edge="1" parent="1" target="hcL6590jOiXDvP15ms0I-135">
          <mxGeometry relative="1" as="geometry">
            <mxPoint x="611.4411764705883" y="1622" as="sourcePoint"/>
          </mxGeometry>
        </mxCell>
        <mxCell id="hcL6590jOiXDvP15ms0I-134" style="edgeStyle=orthogonalEdgeStyle;rounded=0;orthogonalLoop=1;jettySize=auto;html=1;exitX=0.5;exitY=1;exitDx=0;exitDy=0;entryX=0.5;entryY=0;entryDx=0;entryDy=0;strokeWidth=2;" edge="1" parent="1" source="hcL6590jOiXDvP15ms0I-135" target="hcL6590jOiXDvP15ms0I-136">
          <mxGeometry relative="1" as="geometry"/>
        </mxCell>
        <mxCell id="hcL6590jOiXDvP15ms0I-135" value="提交索赔材料" style="rounded=1;whiteSpace=wrap;html=1;fillColor=none;" vertex="1" parent="1">
          <mxGeometry x="547.5" y="1652" width="129" height="31" as="geometry"/>
        </mxCell>
        <mxCell id="hcL6590jOiXDvP15ms0I-136" value="索赔审核" style="rounded=1;whiteSpace=wrap;html=1;fillColor=none;" vertex="1" parent="1">
          <mxGeometry x="548.5" y="1700" width="129" height="31" as="geometry"/>
        </mxCell>
        <mxCell id="hcL6590jOiXDvP15ms0I-137" value="" style="edgeStyle=orthogonalEdgeStyle;rounded=0;orthogonalLoop=1;jettySize=auto;html=1;strokeWidth=2;" edge="1" parent="1" target="hcL6590jOiXDvP15ms0I-138">
          <mxGeometry relative="1" as="geometry">
            <mxPoint x="612.4411764705881" y="1731" as="sourcePoint"/>
          </mxGeometry>
        </mxCell>
        <mxCell id="hcL6590jOiXDvP15ms0I-138" value="领取赔款" style="rounded=1;whiteSpace=wrap;html=1;fillColor=none;" vertex="1" parent="1">
          <mxGeometry x="548.5" y="1761" width="129" height="31" as="geometry"/>
        </mxCell>
        <mxCell id="hcL6590jOiXDvP15ms0I-139" value="" style="edgeStyle=orthogonalEdgeStyle;rounded=0;orthogonalLoop=1;jettySize=auto;html=1;strokeWidth=2;" edge="1" parent="1" source="hcL6590jOiXDvP15ms0I-140" target="hcL6590jOiXDvP15ms0I-142">
          <mxGeometry relative="1" as="geometry"/>
        </mxCell>
        <mxCell id="hcL6590jOiXDvP15ms0I-140" value="车辆出险" style="rounded=1;whiteSpace=wrap;html=1;fillColor=none;" vertex="1" parent="1">
          <mxGeometry x="786.5" y="1438" width="129" height="31" as="geometry"/>
        </mxCell>
        <mxCell id="hcL6590jOiXDvP15ms0I-141" value="" style="edgeStyle=orthogonalEdgeStyle;rounded=0;orthogonalLoop=1;jettySize=auto;html=1;strokeWidth=2;" edge="1" parent="1" source="hcL6590jOiXDvP15ms0I-142" target="hcL6590jOiXDvP15ms0I-143">
          <mxGeometry relative="1" as="geometry"/>
        </mxCell>
        <mxCell id="hcL6590jOiXDvP15ms0I-142" value="拍照" style="rounded=1;whiteSpace=wrap;html=1;fillColor=none;" vertex="1" parent="1">
          <mxGeometry x="787.5" y="1545.5" width="129" height="31" as="geometry"/>
        </mxCell>
        <mxCell id="hcL6590jOiXDvP15ms0I-143" value="领取赔款" style="rounded=1;whiteSpace=wrap;html=1;fillColor=none;" vertex="1" parent="1">
          <mxGeometry x="786.5" y="1642" width="129" height="31" as="geometry"/>
        </mxCell>
        <mxCell id="hcL6590jOiXDvP15ms0I-144" value="" style="endArrow=none;html=1;strokeWidth=2;" edge="1" parent="1">
          <mxGeometry width="50" height="50" relative="1" as="geometry">
            <mxPoint x="736.5" y="1360" as="sourcePoint"/>
            <mxPoint x="736.5" y="1800" as="targetPoint"/>
          </mxGeometry>
        </mxCell>
        <mxCell id="hcL6590jOiXDvP15ms0I-145" value="智能闪赔" style="text;html=1;resizable=0;points=[];autosize=1;align=left;verticalAlign=top;spacingTop=-4;" vertex="1" parent="1">
          <mxGeometry x="866.5" y="1602" width="60" height="20" as="geometry"/>
        </mxCell>
        <mxCell id="hcL6590jOiXDvP15ms0I-146" value="&lt;font style=&quot;font-size: 15px&quot;&gt;&lt;b&gt;“智能闪赔”&lt;br&gt;车险理赔流程&lt;/b&gt;&lt;/font&gt;" style="text;html=1;resizable=0;points=[];autosize=1;align=left;verticalAlign=top;spacingTop=-4;" vertex="1" parent="1">
          <mxGeometry x="805.5" y="1795" width="110" height="30" as="geometry"/>
        </mxCell>
        <mxCell id="hcL6590jOiXDvP15ms0I-147" value="&lt;font style=&quot;font-size: 15px&quot;&gt;&lt;b&gt;传统车险理赔流程&lt;/b&gt;&lt;/font&gt;" style="text;html=1;resizable=0;points=[];autosize=1;align=left;verticalAlign=top;spacingTop=-4;" vertex="1" parent="1">
          <mxGeometry x="548.5" y="1810" width="140" height="20" as="geometry"/>
        </mxCell>
      </root>
    </mxGraphModel>
  </diagram>
</mxfile>
